<svg xmlns="http://www.w3.org/2000/svg" xmlns:xlink="http://www.w3.org/1999/xlink" width="1080" zoomAndPan="magnify" viewBox="0 0 810 809.999993" height="1080" preserveAspectRatio="xMidYMid meet" version="1.0"><defs><clipPath id="e364e0c3e5"><path d="M 163.121094 110.628906 L 668.152344 110.628906 L 668.152344 697 L 163.121094 697 Z M 163.121094 110.628906 " clip-rule="nonzero"/></clipPath><clipPath id="27b0bd549c"><path d="M 45 1 L 766.292969 1 L 766.292969 809 L 45 809 Z M 45 1 " clip-rule="nonzero"/></clipPath></defs><g clip-path="url(#e364e0c3e5)"><path fill="#292626" d="M 163.121094 110.628906 L 668.304688 110.628906 L 668.304688 696.890625 L 163.121094 696.890625 Z M 163.121094 110.628906 " fill-opacity="1" fill-rule="nonzero"/></g><g clip-path="url(#27b0bd549c)"><path fill="#000000" d="M 762.320312 6.71875 C 758.984375 3.085938 754.292969 1.011719 749.351562 1.011719 L 62.742188 1.011719 C 57.804688 1.011719 53.113281 3.085938 49.773438 6.71875 C 46.433594 10.355469 44.800781 15.238281 45.238281 20.140625 L 107.09375 712.664062 C 107.746094 719.902344 112.789062 725.996094 119.785156 727.996094 L 401.128906 808.320312 C 402.691406 808.761719 404.324219 808.988281 405.941406 808.988281 C 407.558594 808.988281 409.191406 808.761719 410.757812 808.320312 L 692.347656 727.996094 C 699.339844 725.996094 704.382812 719.902344 705.035156 712.664062 L 766.855469 20.140625 C 767.296875 15.238281 765.644531 10.355469 762.320312 6.71875 Z M 177.597656 475.328125 L 300.609375 509.441406 L 300.609375 159.09375 L 370.902344 159.09375 L 370.902344 615.777344 L 177.597656 562.1875 Z M 635.445312 352.304688 L 616.921875 567.472656 L 441.195312 615.777344 L 441.195312 534.960938 L 559.8125 502.378906 L 564.203125 436.511719 L 441.195312 457.695312 L 441.195312 159.09375 L 652.070312 159.09375 L 646.007812 229.351562 L 511.484375 229.351562 L 511.484375 369.871094 Z M 635.445312 352.304688 " fill-opacity="1" fill-rule="nonzero"/></g></svg>