<svg xmlns="http://www.w3.org/2000/svg" xmlns:xlink="http://www.w3.org/1999/xlink" width="1080" zoomAndPan="magnify" viewBox="0 0 810 809.999993" height="1080" preserveAspectRatio="xMidYMid meet" version="1.0"><defs><clipPath id="fa31f7672a"><path d="M 0 2.523438 L 810 2.523438 L 810 806 L 0 806 Z M 0 2.523438 " clip-rule="nonzero"/></clipPath><clipPath id="b734ace70a"><path d="M 38.25 2.523438 L 771.75 2.523438 C 792.875 2.523438 810 19.648438 810 40.773438 L 810 771.75 C 810 792.875 792.875 810 771.75 810 L 38.25 810 C 17.125 810 0 792.875 0 771.75 L 0 40.773438 C 0 19.648438 17.125 2.523438 38.25 2.523438 " clip-rule="nonzero"/></clipPath><clipPath id="7a232d8cc7"><path d="M 56.472656 48 L 753.222656 48 L 753.222656 727 L 56.472656 727 Z M 56.472656 48 " clip-rule="nonzero"/></clipPath></defs><g clip-path="url(#fa31f7672a)"><g clip-path="url(#b734ace70a)"><path fill="#292626" d="M 0 2.523438 L 816.464844 2.523438 L 816.464844 805.820312 L 0 805.820312 Z M 0 2.523438 " fill-opacity="1" fill-rule="nonzero"/></g></g><g clip-path="url(#7a232d8cc7)"><path fill="#000000" d="M 404.847656 48.109375 C 212.445312 48.109375 56.472656 203.871094 56.472656 395.855469 C 56.472656 549.527344 156.335938 679.957031 294.722656 726.015625 C 312.097656 729.15625 324.453125 711.359375 324.453125 697.960938 C 324.453125 689.796875 324.660156 679.957031 324.453125 651.066406 C 227.519531 672 197.160156 604.167969 197.160156 604.167969 C 181.25 563.972656 161.988281 552.457031 161.988281 552.457031 C 130.375 530.890625 164.292969 531.519531 164.292969 531.519531 C 199.253906 533.824219 217.257812 563.972656 217.257812 563.972656 C 244.058594 610.867188 304.5625 606.261719 324.453125 597.46875 C 324.453125 576.113281 326.753906 560.621094 332.617188 550.78125 C 223.121094 531.519531 163.453125 468.292969 163.664062 380.78125 C 163.871094 329.070312 181.667969 288.871094 210.558594 259.144531 C 198 243.230469 189.414062 188.796875 215.164062 155.300781 C 279.859375 155.300781 318.378906 201.988281 318.378906 201.988281 C 318.378906 201.988281 348.738281 188.796875 404.636719 188.796875 C 460.746094 188.796875 490.894531 201.359375 490.894531 201.359375 C 490.894531 201.359375 529.625 155.300781 594.316406 155.300781 C 620.066406 188.796875 611.484375 243.230469 601.433594 258.097656 C 629.070312 287.199219 646.027344 327.394531 646.027344 380.78125 C 646.027344 468.292969 586.570312 531.519531 477.285156 550.570312 C 484.191406 561.039062 485.238281 575.695312 485.238281 597.46875 C 485.238281 643.945312 485.238281 686.445312 485.238281 697.960938 C 485.238281 711.359375 497.382812 729.367188 515.179688 726.015625 C 653.566406 679.746094 753.222656 549.527344 753.222656 395.855469 C 753.222656 203.871094 597.246094 48.109375 404.847656 48.109375 Z M 404.847656 48.109375 " fill-opacity="1" fill-rule="nonzero"/></g></svg>