<svg xmlns="http://www.w3.org/2000/svg" xmlns:xlink="http://www.w3.org/1999/xlink" width="1080" zoomAndPan="magnify" viewBox="0 0 810 809.999993" height="1080" preserveAspectRatio="xMidYMid meet" version="1.0"><defs><clipPath id="8ba81407e1"><path d="M 0 1.261719 L 810 1.261719 L 810 806 L 0 806 Z M 0 1.261719 " clip-rule="nonzero"/></clipPath><clipPath id="259bfcd327"><path d="M 38.25 1.261719 L 773.015625 1.261719 C 794.140625 1.261719 811.265625 18.386719 811.265625 39.511719 L 811.265625 771.75 C 811.265625 792.875 794.140625 810 773.015625 810 L 38.25 810 C 17.125 810 0 792.875 0 771.75 L 0 39.511719 C 0 18.386719 17.125 1.261719 38.25 1.261719 " clip-rule="nonzero"/></clipPath><clipPath id="2b594e10d5"><path d="M 88.605469 81 L 723 81 L 723 698 L 88.605469 698 Z M 88.605469 81 " clip-rule="nonzero"/></clipPath><clipPath id="815f7b3eaf"><path d="M 405.632812 81 C 230.542969 81 88.605469 219.121094 88.605469 389.496094 C 88.605469 559.875 230.542969 697.996094 405.632812 697.996094 C 580.722656 697.996094 722.660156 559.875 722.660156 389.496094 C 722.660156 219.121094 580.722656 81 405.632812 81 " clip-rule="nonzero"/></clipPath><clipPath id="84240f50c6"><path d="M 56.558594 46 L 754.808594 46 L 754.808594 727 L 56.558594 727 Z M 56.558594 46 " clip-rule="nonzero"/></clipPath></defs><g clip-path="url(#8ba81407e1)"><g clip-path="url(#259bfcd327)"><path fill="#000000" d="M 0 1.261719 L 817.742188 1.261719 L 817.742188 805.8125 L 0 805.8125 Z M 0 1.261719 " fill-opacity="1" fill-rule="nonzero"/></g></g><g clip-path="url(#2b594e10d5)"><g clip-path="url(#815f7b3eaf)"><path fill="#000000" d="M 88.605469 81 L 726.769531 81 L 726.769531 701.1875 L 88.605469 701.1875 Z M 88.605469 81 " fill-opacity="1" fill-rule="nonzero"/></g></g><g clip-path="url(#84240f50c6)"><path fill="#ffffff" d="M 405.683594 46.921875 C 212.867188 46.921875 56.558594 203.023438 56.558594 395.417969 C 56.558594 549.417969 156.640625 680.132812 295.324219 726.289062 C 312.738281 729.4375 325.117188 711.601562 325.117188 698.175781 C 325.117188 689.992188 325.328125 680.132812 325.117188 651.175781 C 227.972656 672.160156 197.550781 604.179688 197.550781 604.179688 C 181.605469 563.894531 162.304688 552.355469 162.304688 552.355469 C 130.621094 530.746094 164.613281 531.375 164.613281 531.375 C 199.648438 533.683594 217.695312 563.894531 217.695312 563.894531 C 244.550781 610.894531 305.183594 606.277344 325.117188 597.464844 C 325.117188 576.066406 327.425781 560.539062 333.300781 550.679688 C 223.566406 531.375 163.773438 468.011719 163.980469 380.3125 C 164.191406 328.488281 182.027344 288.207031 210.980469 258.410156 C 198.390625 242.464844 189.789062 187.914062 215.59375 154.347656 C 280.425781 154.347656 319.03125 201.132812 319.03125 201.132812 C 319.03125 201.132812 349.453125 187.914062 405.472656 187.914062 C 461.703125 187.914062 491.917969 200.503906 491.917969 200.503906 C 491.917969 200.503906 530.730469 154.347656 595.5625 154.347656 C 621.371094 187.914062 612.765625 242.464844 602.695312 257.363281 C 630.390625 286.527344 647.386719 326.808594 647.386719 380.3125 C 647.386719 468.011719 587.800781 531.375 478.277344 550.46875 C 485.203125 560.960938 486.25 575.644531 486.25 597.464844 C 486.25 644.042969 486.25 686.636719 486.25 698.175781 C 486.25 711.601562 498.421875 729.648438 516.253906 726.289062 C 654.9375 679.921875 754.808594 549.417969 754.808594 395.417969 C 754.808594 203.023438 598.5 46.921875 405.683594 46.921875 Z M 405.683594 46.921875 " fill-opacity="1" fill-rule="nonzero"/></g></svg>