<svg xmlns="http://www.w3.org/2000/svg" xmlns:xlink="http://www.w3.org/1999/xlink" width="1080" zoomAndPan="magnify" viewBox="0 0 810 809.999993" height="1080" preserveAspectRatio="xMidYMid meet" version="1.0"><defs><clipPath id="80b836f4b6"><path d="M 50.074219 2 L 759.574219 2 L 759.574219 808 L 50.074219 808 Z M 50.074219 2 " clip-rule="nonzero"/></clipPath></defs><g clip-path="url(#80b836f4b6)"><path fill="#e44d26" d="M 114.480469 727.253906 L 49.871094 2.273438 L 759.773438 2.273438 L 695.113281 727.152344 L 404.371094 807.753906 Z M 114.480469 727.253906 " fill-opacity="1" fill-rule="nonzero"/></g><path fill="#f16529" d="M 639.738281 680.984375 L 695.011719 61.550781 L 404.824219 61.550781 L 404.824219 746.15625 Z M 639.738281 680.984375 " fill-opacity="1" fill-rule="nonzero"/><path fill="#ebebeb" d="M 404.519531 150.460938 L 181.960938 150.460938 L 205.9375 419.347656 L 404.824219 419.347656 L 404.824219 330.441406 L 287.226562 330.441406 L 279.101562 239.394531 L 404.824219 239.394531 L 404.824219 150.460938 Z M 404.824219 561.066406 L 404.445312 561.167969 L 305.46875 534.433594 L 299.175781 463.523438 L 209.910156 463.523438 L 222.367188 603.128906 L 404.421875 653.472656 L 404.824219 653.347656 Z M 404.824219 561.066406 " fill-opacity="1" fill-rule="nonzero"/><path fill="#ffffff" d="M 404.519531 419.347656 L 513.964844 419.347656 L 503.902344 534.636719 L 404.773438 561.394531 L 404.773438 653.902344 L 586.976562 603.378906 L 611.382812 330.390625 L 404.824219 330.390625 Z M 625.019531 174.324219 L 627.132812 150.460938 L 404.46875 150.460938 L 404.46875 239.367188 L 619.132812 239.367188 L 620.894531 219.382812 Z M 625.019531 174.324219 " fill-opacity="1" fill-rule="nonzero"/></svg>