<svg xmlns="http://www.w3.org/2000/svg" xmlns:xlink="http://www.w3.org/1999/xlink" width="1080" zoomAndPan="magnify" viewBox="0 0 810 809.999993" height="1080" preserveAspectRatio="xMidYMid meet" version="1.0"><defs><clipPath id="3cd41eb941"><path d="M 101.328125 44.621094 L 678.996094 44.621094 L 678.996094 629.570312 L 101.328125 629.570312 Z M 101.328125 44.621094 " clip-rule="nonzero"/></clipPath><clipPath id="96dea2d1bf"><path d="M 30 1 L 751.457031 1 L 751.457031 809 L 30 809 Z M 30 1 " clip-rule="nonzero"/></clipPath></defs><g clip-path="url(#3cd41eb941)"><path fill="#fefefe" d="M 101.328125 44.621094 L 678.453125 44.621094 L 678.453125 629.339844 L 101.328125 629.339844 Z M 101.328125 44.621094 " fill-opacity="1" fill-rule="nonzero"/></g><g clip-path="url(#96dea2d1bf)"><path fill="#ffc44d" d="M 747.484375 6.71875 C 744.144531 3.085938 739.453125 1.011719 734.515625 1.011719 L 47.902344 1.011719 C 42.964844 1.011719 38.273438 3.085938 34.933594 6.71875 C 31.597656 10.355469 29.960938 15.238281 30.402344 20.140625 L 92.257812 712.664062 C 92.90625 719.902344 97.953125 725.996094 104.945312 727.996094 L 386.289062 808.320312 C 387.851562 808.761719 389.488281 808.988281 391.105469 808.988281 C 392.722656 808.988281 394.355469 808.761719 395.917969 808.320312 L 677.507812 727.996094 C 684.503906 725.996094 689.546875 719.902344 690.195312 712.664062 L 752.019531 20.140625 C 752.457031 15.238281 750.804688 10.355469 747.484375 6.71875 Z M 162.761719 475.328125 L 285.773438 509.441406 L 285.773438 159.09375 L 356.0625 159.09375 L 356.0625 615.777344 L 162.761719 562.1875 Z M 620.609375 352.304688 L 602.085938 567.472656 L 426.355469 615.777344 L 426.355469 534.960938 L 544.972656 502.378906 L 549.367188 436.511719 L 426.355469 457.695312 L 426.355469 159.09375 L 637.230469 159.09375 L 631.167969 229.351562 L 496.648438 229.351562 L 496.648438 369.871094 Z M 620.609375 352.304688 " fill-opacity="1" fill-rule="nonzero"/></g></svg>